#!OML:ASF I:\golf\golf\golf 2\Subject 1\2002-09-07\Subject1.ASF
:FULLY-SPECIFIED
:DEGREES
166
root -6.20885 17.7256 0.723011 -11.1106 73.3112 -27.8242
lowerback 1.08252 1.94208 -6.55647
upperback 4.4963 2.6812 1.98235
thorax 3.67478 1.09891 5.79574
lowerneck -14.2848 4.00895 1.14805
upperneck 36.376 8.97403 -4.86237
head 15.4936 3.65 -0.612306
rclavicle -3.02153e-014 -2.38542e-015
rhumerus -13.0403 5.68283 -101.58
rradius 44.1604
rwrist -65.7005
rhand -34.3989 -13.8057
rfingers 7.12502
rthumb -7.56459 -43.6504
lclavicle -3.02153e-014 -2.38542e-015
lhumerus 37.3789 -81.6123 58.4009
lradius 28.2887
lwrist 36.7354
lhand 12.5489 63.1325
lfingers 7.12502
lthumb -142.46 269.055
rfemur -35.0446 5.17446 16.2826
rtibia 28.667
rfoot -7.80258 2.44617
rtoes 2.14814
lfemur -24.2223 14.9864 -3.03161
ltibia 29.6197
lfoot -11.4133 9.45648
ltoes -22.1608
167
root -6.21047 17.7211 0.751643 -10.6671 72.2206 -27.3417
lowerback 1.01581 1.75104 -6.62826
upperback 4.49334 2.43314 1.86674
thorax 3.74859 0.970894 5.71543
lowerneck -14.1378 4.51423 1.09457
upperneck 36.1291 9.72951 -4.95166
head 15.3784 3.94526 -0.51557
rclavicle -4.21423e-014 1.90833e-014
rhumerus -13.0722 5.39752 -101.369
rradius 44.974
rwrist -66.0999
rhand -35.5878 -13.8184
rfingers 7.12502
rthumb -8.71199 -43.6186
lclavicle -4.21423e-014 1.90833e-014
lhumerus 42.9037 -81.744 53.0318
lradius 28.3921
lwrist 36.4349
lhand 11.7953 57.8769
lfingers 7.12502
lthumb -143.173 263.986
rfemur -35.0733 5.53795 16.7552
rtibia 28.5347
rfoot -7.8095 3.26711
rtoes 3.09192
lfemur -23.6559 15.4196 -2.56474
ltibia 29.6145
lfoot -11.4625 9.99912
ltoes -22.4317
168
root -6.20929 17.7173 0.777397 -10.5138 71.2108 -27.1814
lowerback 0.969276 1.52383 -6.68711
upperback 4.46123 2.13296 1.79805
thorax 3.78637 0.818627 5.67429
lowerneck -14.1046 5.01784 1.14619
upperneck 36.0399 10.5091 -5.11518
head 15.3829 4.24967 -0.459224
rclavicle 5.56597e-015 7.95139e-016
rhumerus -13.1996 4.89312 -101.137
rradius 45.8833
rwrist -66.3365
rhand -36.4356 -14.2068
rfingers 7.12502
rthumb -9.53009 -43.9713
lclavicle 5.56597e-015 7.95139e-016
lhumerus 47.2309 -81.6534 49.0098
lradius 28.4189
lwrist 35.8277
lhand 13.0173 62.7831
lfingers 7.12502
lthumb -142.018 268.587
rfemur -35.0798 5.72061 17.3361
rtibia 28.3635
rfoot -7.77353 4.08128
rtoes 3.76047
lfemur -23.1572 15.7744 -2.06425
ltibia 29.6521
lfoot -11.4284 10.5907
ltoes -23.4825
169
root -6.20557 17.7136 0.810565 -10.3189 70.2011 -27.0167
lowerback 0.78487 1.21997 -6.85413
upperback 4.45638 1.7445 1.66825
thorax 3.9439 0.613998 5.63267
lowerneck -14.0909 5.62566 1.51016
upperneck 35.9266 11.367 -5.34574
head 15.4138 4.61606 -0.468799
rclavicle -8.34896e-015 7.95139e-015
rhumerus -13.3031 4.64033 -101.02
rradius 46.9302
rwrist -66.7037
rhand -38.1408 -14.2302
rfingers 7.12502
rthumb -11.1751 -43.9126
lclavicle -8.34896e-015 7.95139e-015
lhumerus 48.0113 -81.0838 48.5163
lradius 28.2762
lwrist 34.4834
lhand 13.9566 62.9812
lfingers 7.12502
lthumb -141.131 268.539
rfemur -35.073 5.92996 17.9235
rtibia 28.1356
rfoot -7.70011 4.85923
rtoes 3.6737
lfemur -22.7049 16.2311 -1.57156
ltibia 29.7417
lfoot -11.4003 11.1215
ltoes -24.3101
170
root -6.2014 17.7111 0.850541 -10.1062 69.1464 -26.8632
lowerback 0.535895 0.861468 -7.08323
upperback 4.44248 1.28929 1.54186
thorax 4.13877 0.372325 5.62656
lowerneck -13.934 6.28926 1.92256
upperneck 35.6443 12.2965 -5.66378
head 15.3522 5.01522 -0.515033
rclavicle 7.196e-014 -6.36111e-015
rhumerus -13.4774 4.7285 -100.88
rradius 48.0864
rwrist -67.2178
rhand -39.7616 -14.0378
rfingers 7.12502
rthumb -12.7379 -43.6292
lclavicle 7.196e-014 -6.36111e-015
lhumerus 46.7165 -80.2514 50.1253
lradius 28.0428
lwrist 32.8809
lhand 14.3608 61.2346
lfingers 7.12502
lthumb -140.75 266.683
rfemur -35.0599 6.35563 18.4822
rtibia 27.8874
rfoot -7.69045 5.36191
rtoes 2.45744
lfemur -22.2259 16.7132 -1.03635
ltibia 29.8262
lfoot -11.4637 11.6071
ltoes -24.2223
171
root -6.19706 17.7093 0.88858 -9.80891 68.1216 -26.5961
lowerback 0.38265 0.618632 -7.20807
upperback 4.35196 0.979833 1.33306
thorax 4.179 0.217189 5.47107
lowerneck -13.5684 6.82813 2.36359
upperneck 35.2448 13.0125 -5.97706
head 15.1832 5.34464 -0.61033
rclavicle 1.66979e-014 -3.18055e-015
rhumerus -13.7745 4.52844 -100.603
rradius 49.3231
rwrist -67.9878
rhand -40.7998 -13.8273
rfingers 7.12502
rthumb -13.7387 -43.3537
lclavicle 1.66979e-014 -3.18055e-015
lhumerus 48.0463 -79.9289 49.1463
lradius 27.9298
lwrist 31.6189
lhand 14.7027 59.8954
lfingers 7.12502
lthumb -140.428 265.249
rfemur -35.0156 6.87035 18.912
rtibia 27.6628
rfoot -7.75453 5.74154
rtoes 1.52979
lfemur -21.6986 17.0955 -0.562149
ltibia 29.8811
lfoot -11.5513 12.1255
ltoes -23.9202
172
root -6.18888 17.707 0.926328 -9.5067 67.115 -26.1523
lowerback 0.387531 0.43783 -7.29079
upperback 4.27384 0.744894 1.0487
thorax 4.13107 0.106345 5.21093
lowerneck -13.1799 7.34115 2.74161
upperneck 34.8534 13.6618 -6.15757
head 14.9977 5.65826 -0.653696
rclavicle 1.27222e-014 7.95139e-015
rhumerus -14.1516 4.24019 -100.342
rradius 50.6161
rwrist -68.7597
rhand -41.9315 -13.0776
rfingers 7.12502
rthumb -14.8292 -42.527
lclavicle 1.27222e-014 7.95139e-015
lhumerus 52.8383 -80.0621 44.6024
lradius 27.9158
lwrist 30.6474
lhand 14.6609 57.9191
lfingers 7.12502
lthumb -140.468 263.285
rfemur -34.7975 7.39436 19.2391
rtibia 27.4904
rfoot -7.71928 6.18498
rtoes 2.5412
lfemur -20.9837 17.2921 -0.119385
ltibia 29.9325
lfoot -11.6714 12.7678
ltoes -23.9435
